<mxfile host="Electron" modified="2024-03-14T16:34:16.141Z" agent="Mozilla/5.0 (X11; Linux x86_64) AppleWebKit/537.36 (KHTML, like Gecko) draw.io/24.0.4 Chrome/120.0.6099.109 Electron/28.1.0 Safari/537.36" etag="VzzmRzZBgoxDTYU_5NbU" version="24.0.4" type="device">
  <diagram name="Pagina-1" id="j_mehAQaGmbBfb88ycC4">
    <mxGraphModel dx="1419" dy="891" grid="1" gridSize="10" guides="1" tooltips="1" connect="1" arrows="1" fold="1" page="1" pageScale="1" pageWidth="827" pageHeight="1169" math="0" shadow="0">
      <root>
        <mxCell id="0" />
        <mxCell id="1" parent="0" />
        <mxCell id="FlXLi9PUTKlSXyYW-GBi-1" value="Applicativo centrale 118" style="strokeWidth=1;shadow=0;dashed=0;align=center;html=1;shape=mxgraph.mockup.containers.window;align=left;verticalAlign=top;spacingLeft=8;strokeColor2=#008cff;strokeColor3=#c4c4c4;fontColor=#666666;mainText=;fontSize=17;labelBackgroundColor=none;whiteSpace=wrap;" vertex="1" parent="1">
          <mxGeometry x="-820" y="10" width="960" height="660" as="geometry" />
        </mxCell>
        <mxCell id="FlXLi9PUTKlSXyYW-GBi-2" value="" style="verticalLabelPosition=bottom;shadow=0;dashed=0;align=center;html=1;verticalAlign=top;strokeWidth=1;shape=mxgraph.mockup.misc.map;" vertex="1" parent="1">
          <mxGeometry x="-330" y="50" width="460" height="610" as="geometry" />
        </mxCell>
        <mxCell id="FlXLi9PUTKlSXyYW-GBi-3" value="" style="verticalLabelPosition=bottom;shadow=0;dashed=0;align=center;html=1;verticalAlign=top;strokeWidth=1;shape=mxgraph.mockup.navigation.mapNavigator;fillColor2=#99ddff;strokeColor2=none;strokeColor3=#ffffff;strokeColor=#999999;" vertex="1" parent="1">
          <mxGeometry x="70" y="60" width="50" height="83.33" as="geometry" />
        </mxCell>
        <mxCell id="FlXLi9PUTKlSXyYW-GBi-13" value="" style="edgeStyle=orthogonalEdgeStyle;rounded=0;orthogonalLoop=1;jettySize=auto;html=1;" edge="1" parent="1" source="FlXLi9PUTKlSXyYW-GBi-6" target="FlXLi9PUTKlSXyYW-GBi-12">
          <mxGeometry relative="1" as="geometry" />
        </mxCell>
        <mxCell id="FlXLi9PUTKlSXyYW-GBi-6" value="" style="ellipse;whiteSpace=wrap;html=1;aspect=fixed;fillColor=#0050ef;strokeColor=#001DBC;fontColor=#ffffff;" vertex="1" parent="1">
          <mxGeometry x="-150" y="310" width="20" height="20" as="geometry" />
        </mxCell>
        <mxCell id="FlXLi9PUTKlSXyYW-GBi-15" value="" style="edgeStyle=orthogonalEdgeStyle;rounded=0;orthogonalLoop=1;jettySize=auto;html=1;" edge="1" parent="1" source="FlXLi9PUTKlSXyYW-GBi-8" target="FlXLi9PUTKlSXyYW-GBi-14">
          <mxGeometry relative="1" as="geometry" />
        </mxCell>
        <mxCell id="FlXLi9PUTKlSXyYW-GBi-8" value="" style="ellipse;whiteSpace=wrap;html=1;aspect=fixed;fillColor=#008a00;strokeColor=#005700;fontColor=#ffffff;" vertex="1" parent="1">
          <mxGeometry x="70" y="630" width="20" height="20" as="geometry" />
        </mxCell>
        <mxCell id="FlXLi9PUTKlSXyYW-GBi-9" value="" style="ellipse;whiteSpace=wrap;html=1;aspect=fixed;fillColor=#0050ef;strokeColor=#001DBC;fontColor=#ffffff;" vertex="1" parent="1">
          <mxGeometry x="-300" y="110" width="20" height="20" as="geometry" />
        </mxCell>
        <mxCell id="FlXLi9PUTKlSXyYW-GBi-17" value="" style="edgeStyle=orthogonalEdgeStyle;rounded=0;orthogonalLoop=1;jettySize=auto;html=1;" edge="1" parent="1" source="FlXLi9PUTKlSXyYW-GBi-10" target="FlXLi9PUTKlSXyYW-GBi-16">
          <mxGeometry relative="1" as="geometry" />
        </mxCell>
        <mxCell id="FlXLi9PUTKlSXyYW-GBi-10" value="" style="ellipse;whiteSpace=wrap;html=1;aspect=fixed;fillColor=#fa6800;strokeColor=#C73500;fontColor=#000000;" vertex="1" parent="1">
          <mxGeometry x="-290" y="100" width="20" height="20" as="geometry" />
        </mxCell>
        <mxCell id="FlXLi9PUTKlSXyYW-GBi-11" value="" style="ellipse;whiteSpace=wrap;html=1;aspect=fixed;fillColor=#fa6800;strokeColor=#C73500;fontColor=#000000;" vertex="1" parent="1">
          <mxGeometry x="-310" y="90" width="20" height="20" as="geometry" />
        </mxCell>
        <mxCell id="FlXLi9PUTKlSXyYW-GBi-12" value="Luogo missione" style="rounded=1;whiteSpace=wrap;html=1;" vertex="1" parent="1">
          <mxGeometry x="-200" y="230" width="120" height="30" as="geometry" />
        </mxCell>
        <mxCell id="FlXLi9PUTKlSXyYW-GBi-14" value="Mezzo di soccorso disponibile" style="rounded=1;whiteSpace=wrap;html=1;" vertex="1" parent="1">
          <mxGeometry x="50" y="520" width="102.5" height="30" as="geometry" />
        </mxCell>
        <mxCell id="FlXLi9PUTKlSXyYW-GBi-16" value="Mezzo di soccorso impegnato" style="rounded=1;whiteSpace=wrap;html=1;" vertex="1" parent="1">
          <mxGeometry x="-240" y="95" width="110" height="30" as="geometry" />
        </mxCell>
        <mxCell id="FlXLi9PUTKlSXyYW-GBi-18" value="" style="rounded=0;whiteSpace=wrap;html=1;" vertex="1" parent="1">
          <mxGeometry x="-810" y="50" width="470" height="60" as="geometry" />
        </mxCell>
        <mxCell id="FlXLi9PUTKlSXyYW-GBi-19" value="Nuova missione" style="strokeWidth=1;shadow=0;dashed=0;align=center;html=1;shape=mxgraph.mockup.buttons.button;strokeColor=#666666;fontColor=#ffffff;mainText=;buttonStyle=round;fontSize=17;fontStyle=1;fillColor=#008cff;whiteSpace=wrap;" vertex="1" parent="1">
          <mxGeometry x="-800" y="55" width="80" height="50" as="geometry" />
        </mxCell>
        <mxCell id="FlXLi9PUTKlSXyYW-GBi-20" value="" style="rounded=0;whiteSpace=wrap;html=1;" vertex="1" parent="1">
          <mxGeometry x="-810" y="120" width="470" height="540" as="geometry" />
        </mxCell>
        <mxCell id="FlXLi9PUTKlSXyYW-GBi-21" value="Mario Rossi" style="strokeWidth=1;shadow=0;dashed=0;align=center;html=1;shape=mxgraph.mockup.text.textBox;fontColor=#666666;align=left;fontSize=17;spacingLeft=4;spacingTop=-3;whiteSpace=wrap;strokeColor=#666666;mainText=" vertex="1" parent="1">
          <mxGeometry x="-710" y="141.67000000000002" width="120" height="30" as="geometry" />
        </mxCell>
        <mxCell id="FlXLi9PUTKlSXyYW-GBi-23" value="Chiamante:" style="rounded=0;whiteSpace=wrap;html=1;" vertex="1" parent="1">
          <mxGeometry x="-800" y="143.33" width="80" height="26.67" as="geometry" />
        </mxCell>
        <mxCell id="FlXLi9PUTKlSXyYW-GBi-24" value="Numero:" style="rounded=0;whiteSpace=wrap;html=1;" vertex="1" parent="1">
          <mxGeometry x="-550" y="143.33" width="80" height="26.67" as="geometry" />
        </mxCell>
        <mxCell id="FlXLi9PUTKlSXyYW-GBi-25" value="3341234568" style="strokeWidth=1;shadow=0;dashed=0;align=center;html=1;shape=mxgraph.mockup.text.textBox;fontColor=#666666;align=left;fontSize=17;spacingLeft=4;spacingTop=-3;whiteSpace=wrap;strokeColor=#666666;mainText=" vertex="1" parent="1">
          <mxGeometry x="-460" y="141.67" width="110" height="30" as="geometry" />
        </mxCell>
        <mxCell id="FlXLi9PUTKlSXyYW-GBi-26" value="Squadre" style="strokeWidth=1;shadow=0;dashed=0;align=center;html=1;shape=mxgraph.mockup.buttons.button;strokeColor=#666666;fontColor=#ffffff;mainText=;buttonStyle=round;fontSize=17;fontStyle=1;fillColor=#008cff;whiteSpace=wrap;" vertex="1" parent="1">
          <mxGeometry x="-710" y="55" width="80" height="50" as="geometry" />
        </mxCell>
        <mxCell id="FlXLi9PUTKlSXyYW-GBi-28" value="PZ Maschio, 60 anni circa, cosciente, dolore al petto,&lt;div&gt;IMA pregresso&lt;/div&gt;" style="strokeWidth=1;shadow=0;dashed=0;align=center;html=1;shape=mxgraph.mockup.text.textBox;fontColor=#666666;align=left;fontSize=17;spacingLeft=4;spacingTop=0;whiteSpace=wrap;strokeColor=#666666;mainText=;labelPosition=center;verticalLabelPosition=middle;verticalAlign=top;spacing=2;" vertex="1" parent="1">
          <mxGeometry x="-800" y="230" width="450" height="130" as="geometry" />
        </mxCell>
        <mxCell id="FlXLi9PUTKlSXyYW-GBi-31" value="ALFA07" style="rounded=1;whiteSpace=wrap;html=1;fontSize=8;" vertex="1" parent="1">
          <mxGeometry x="-320" y="80" width="40" height="10" as="geometry" />
        </mxCell>
        <mxCell id="FlXLi9PUTKlSXyYW-GBi-32" value="BRAVO3450" style="rounded=1;whiteSpace=wrap;html=1;fontSize=8;" vertex="1" parent="1">
          <mxGeometry x="-305" y="90" width="50" height="10" as="geometry" />
        </mxCell>
        <mxCell id="FlXLi9PUTKlSXyYW-GBi-33" value="INDIA01" style="rounded=1;whiteSpace=wrap;html=1;fontSize=8;" vertex="1" parent="1">
          <mxGeometry x="60" y="620" width="40" height="10" as="geometry" />
        </mxCell>
        <mxCell id="FlXLi9PUTKlSXyYW-GBi-35" value="" style="strokeWidth=1;shadow=0;dashed=0;align=center;html=1;shape=mxgraph.mockup.forms.rrect;rSize=0;strokeColor=#999999;fillColor=#ffffff;" vertex="1" parent="1">
          <mxGeometry x="-500" y="476.5" width="150" height="180" as="geometry" />
        </mxCell>
        <mxCell id="FlXLi9PUTKlSXyYW-GBi-36" value="Squadre disponibili" style="strokeWidth=1;shadow=0;dashed=0;align=center;html=1;shape=mxgraph.mockup.forms.rrect;rSize=0;strokeColor=#999999;fontColor=#008cff;fontSize=17;fillColor=#ffffff;resizeWidth=1;whiteSpace=wrap;" vertex="1" parent="FlXLi9PUTKlSXyYW-GBi-35">
          <mxGeometry width="150" height="30" relative="1" as="geometry">
            <mxPoint y="-1" as="offset" />
          </mxGeometry>
        </mxCell>
        <mxCell id="FlXLi9PUTKlSXyYW-GBi-37" value="BRAVO3451" style="strokeWidth=1;shadow=0;dashed=0;align=center;html=1;shape=mxgraph.mockup.forms.anchor;fontSize=17;fontColor=#666666;align=left;spacingLeft=5;resizeWidth=1;whiteSpace=wrap;" vertex="1" parent="FlXLi9PUTKlSXyYW-GBi-35">
          <mxGeometry width="150" height="20" relative="1" as="geometry">
            <mxPoint y="30" as="offset" />
          </mxGeometry>
        </mxCell>
        <mxCell id="FlXLi9PUTKlSXyYW-GBi-38" value="BRAVO3452" style="strokeWidth=1;shadow=0;dashed=0;align=center;html=1;shape=mxgraph.mockup.forms.anchor;fontSize=17;fontColor=#666666;align=left;spacingLeft=5;resizeWidth=1;whiteSpace=wrap;" vertex="1" parent="FlXLi9PUTKlSXyYW-GBi-35">
          <mxGeometry width="150" height="20" relative="1" as="geometry">
            <mxPoint y="50" as="offset" />
          </mxGeometry>
        </mxCell>
        <mxCell id="FlXLi9PUTKlSXyYW-GBi-39" value="INDIA01" style="strokeWidth=1;shadow=0;dashed=0;align=center;html=1;shape=mxgraph.mockup.forms.rrect;rSize=0;fontSize=17;fontColor=#666666;align=left;spacingLeft=5;fillColor=#ddeeff;strokeColor=none;resizeWidth=1;whiteSpace=wrap;" vertex="1" parent="FlXLi9PUTKlSXyYW-GBi-35">
          <mxGeometry width="150" height="20" relative="1" as="geometry">
            <mxPoint y="70" as="offset" />
          </mxGeometry>
        </mxCell>
        <mxCell id="FlXLi9PUTKlSXyYW-GBi-40" value="ALFA11" style="strokeWidth=1;shadow=0;dashed=0;align=center;html=1;shape=mxgraph.mockup.forms.anchor;fontSize=17;fontColor=#666666;align=left;spacingLeft=5;resizeWidth=1;whiteSpace=wrap;" vertex="1" parent="FlXLi9PUTKlSXyYW-GBi-35">
          <mxGeometry width="150" height="20" relative="1" as="geometry">
            <mxPoint y="90" as="offset" />
          </mxGeometry>
        </mxCell>
        <mxCell id="FlXLi9PUTKlSXyYW-GBi-61" value="D" style="rounded=1;whiteSpace=wrap;html=1;fillColor=#ffff88;strokeColor=#36393d;fontStyle=1" vertex="1" parent="FlXLi9PUTKlSXyYW-GBi-35">
          <mxGeometry x="-10" y="-16.5" width="20" height="20" as="geometry" />
        </mxCell>
        <mxCell id="FlXLi9PUTKlSXyYW-GBi-41" value="" style="strokeWidth=1;shadow=0;dashed=0;align=center;html=1;shape=mxgraph.mockup.containers.rrect;rSize=0;strokeColor=#666666;fontColor=#666666;fontSize=17;verticalAlign=top;whiteSpace=wrap;fillColor=#ffffff;spacingTop=32;" vertex="1" parent="1">
          <mxGeometry x="-465" y="285" width="250" height="140" as="geometry" />
        </mxCell>
        <mxCell id="FlXLi9PUTKlSXyYW-GBi-42" value="Attivare INDIA01?" style="strokeWidth=1;shadow=0;dashed=0;align=center;html=1;shape=mxgraph.mockup.containers.rrect;rSize=0;fontSize=17;fontColor=#666666;strokeColor=#666666;align=left;spacingLeft=8;fillColor=none;resizeWidth=1;whiteSpace=wrap;" vertex="1" parent="FlXLi9PUTKlSXyYW-GBi-41">
          <mxGeometry width="250" height="30" relative="1" as="geometry" />
        </mxCell>
        <mxCell id="FlXLi9PUTKlSXyYW-GBi-43" value="" style="shape=ellipse;strokeColor=#008cff;resizable=0;fillColor=none;html=1;" vertex="1" parent="FlXLi9PUTKlSXyYW-GBi-42">
          <mxGeometry x="1" y="0.5" width="20" height="20" relative="1" as="geometry">
            <mxPoint x="-25" y="-10" as="offset" />
          </mxGeometry>
        </mxCell>
        <mxCell id="FlXLi9PUTKlSXyYW-GBi-44" value="Cancel" style="strokeWidth=1;shadow=0;dashed=0;align=center;html=1;shape=mxgraph.mockup.containers.rrect;rSize=0;fontSize=16;fontColor=#666666;strokeColor=#c4c4c4;whiteSpace=wrap;fillColor=none;" vertex="1" parent="FlXLi9PUTKlSXyYW-GBi-41">
          <mxGeometry x="0.25" y="1" width="90" height="25" relative="1" as="geometry">
            <mxPoint x="-45" y="-33" as="offset" />
          </mxGeometry>
        </mxCell>
        <mxCell id="FlXLi9PUTKlSXyYW-GBi-45" value="OK" style="strokeWidth=1;shadow=0;dashed=0;align=center;html=1;shape=mxgraph.mockup.containers.rrect;rSize=0;fontSize=16;fontColor=#666666;strokeColor=#c4c4c4;whiteSpace=wrap;fillColor=none;" vertex="1" parent="FlXLi9PUTKlSXyYW-GBi-41">
          <mxGeometry x="0.75" y="1" width="90" height="25" relative="1" as="geometry">
            <mxPoint x="-45" y="-33" as="offset" />
          </mxGeometry>
        </mxCell>
        <mxCell id="FlXLi9PUTKlSXyYW-GBi-46" value="Giallo" style="strokeWidth=1;shadow=0;dashed=0;align=center;html=1;shape=mxgraph.mockup.forms.comboBox;strokeColor=#999999;fillColor=#ddeeff;align=left;fillColor2=#aaddff;mainText=;fontColor=#666666;fontSize=17;spacingLeft=3;" vertex="1" parent="FlXLi9PUTKlSXyYW-GBi-41">
          <mxGeometry x="50" y="50" width="150" height="30" as="geometry" />
        </mxCell>
        <mxCell id="FlXLi9PUTKlSXyYW-GBi-62" value="E" style="rounded=1;whiteSpace=wrap;html=1;fillColor=#ffff88;strokeColor=#36393d;fontStyle=1;arcSize=0;" vertex="1" parent="FlXLi9PUTKlSXyYW-GBi-41">
          <mxGeometry x="30" y="35" width="20" height="20" as="geometry" />
        </mxCell>
        <mxCell id="FlXLi9PUTKlSXyYW-GBi-47" value="Luogo:" style="rounded=0;whiteSpace=wrap;html=1;" vertex="1" parent="1">
          <mxGeometry x="-800" y="190" width="80" height="26.67" as="geometry" />
        </mxCell>
        <mxCell id="FlXLi9PUTKlSXyYW-GBi-48" value="Strada" style="strokeWidth=1;shadow=0;dashed=0;align=center;html=1;shape=mxgraph.mockup.forms.comboBox;strokeColor=#999999;fillColor=#ddeeff;align=left;fillColor2=#aaddff;mainText=;fontColor=#666666;fontSize=17;spacingLeft=3;" vertex="1" parent="1">
          <mxGeometry x="-710" y="188.33" width="120" height="30" as="geometry" />
        </mxCell>
        <mxCell id="FlXLi9PUTKlSXyYW-GBi-49" value="Piazza Matteotti 5" style="strokeWidth=1;shadow=0;dashed=0;align=center;html=1;shape=mxgraph.mockup.text.textBox;fontColor=#666666;align=left;fontSize=17;spacingLeft=4;spacingTop=-3;whiteSpace=wrap;strokeColor=#666666;mainText=" vertex="1" parent="1">
          <mxGeometry x="-580" y="188.33" width="230" height="30" as="geometry" />
        </mxCell>
        <mxCell id="FlXLi9PUTKlSXyYW-GBi-50" value="Classe patologica:" style="rounded=0;whiteSpace=wrap;html=1;" vertex="1" parent="1">
          <mxGeometry x="-800" y="449.83" width="110" height="26.67" as="geometry" />
        </mxCell>
        <mxCell id="FlXLi9PUTKlSXyYW-GBi-51" value="Cardiologica" style="strokeWidth=1;shadow=0;dashed=0;align=center;html=1;shape=mxgraph.mockup.forms.comboBox;strokeColor=#999999;fillColor=#ddeeff;align=left;fillColor2=#aaddff;mainText=;fontColor=#666666;fontSize=17;spacingLeft=3;" vertex="1" parent="1">
          <mxGeometry x="-670" y="448.16999999999996" width="140" height="30" as="geometry" />
        </mxCell>
        <mxCell id="FlXLi9PUTKlSXyYW-GBi-52" value="Invia modifiche" style="rounded=1;align=center;fillColor=#F1F2F4;strokeColor=none;html=1;whiteSpace=wrap;fontColor=#A5ADBA;fontSize=12" vertex="1" parent="1">
          <mxGeometry x="-800" y="620" width="110" height="33" as="geometry" />
        </mxCell>
        <mxCell id="FlXLi9PUTKlSXyYW-GBi-53" value="Dati anagrafici disponibili:" style="rounded=0;whiteSpace=wrap;html=1;" vertex="1" parent="1">
          <mxGeometry x="-800" y="370" width="140" height="26.67" as="geometry" />
        </mxCell>
        <mxCell id="FlXLi9PUTKlSXyYW-GBi-54" value="No" style="strokeWidth=1;shadow=0;dashed=0;align=center;html=1;shape=mxgraph.mockup.forms.comboBox;strokeColor=#999999;fillColor=#ddeeff;align=left;fillColor2=#aaddff;mainText=;fontColor=#666666;fontSize=17;spacingLeft=3;" vertex="1" parent="1">
          <mxGeometry x="-645" y="368.33" width="65" height="30" as="geometry" />
        </mxCell>
        <mxCell id="FlXLi9PUTKlSXyYW-GBi-55" value="Nome" style="strokeWidth=1;shadow=0;dashed=0;align=center;html=1;shape=mxgraph.mockup.text.textBox;fontColor=#666666;align=left;fontSize=17;spacingLeft=4;spacingTop=-3;whiteSpace=wrap;strokeColor=#666666;mainText=" vertex="1" parent="1">
          <mxGeometry x="-800" y="408.33" width="80" height="30" as="geometry" />
        </mxCell>
        <mxCell id="FlXLi9PUTKlSXyYW-GBi-56" value="Cognome" style="strokeWidth=1;shadow=0;dashed=0;align=center;html=1;shape=mxgraph.mockup.text.textBox;fontColor=#666666;align=left;fontSize=17;spacingLeft=4;spacingTop=-3;whiteSpace=wrap;strokeColor=#666666;mainText=" vertex="1" parent="1">
          <mxGeometry x="-710" y="408.33" width="90" height="30" as="geometry" />
        </mxCell>
        <mxCell id="FlXLi9PUTKlSXyYW-GBi-57" value="Data di nascita" style="strokeWidth=1;shadow=0;dashed=0;align=center;html=1;shape=mxgraph.mockup.text.textBox;fontColor=#666666;align=left;fontSize=17;spacingLeft=4;spacingTop=-3;whiteSpace=wrap;strokeColor=#666666;mainText=" vertex="1" parent="1">
          <mxGeometry x="-610" y="408.33" width="130" height="30" as="geometry" />
        </mxCell>
        <mxCell id="FlXLi9PUTKlSXyYW-GBi-58" value="A" style="rounded=1;whiteSpace=wrap;html=1;fillColor=#ffff88;strokeColor=#36393d;fontStyle=1" vertex="1" parent="1">
          <mxGeometry x="-810" y="130" width="20" height="20" as="geometry" />
        </mxCell>
        <mxCell id="FlXLi9PUTKlSXyYW-GBi-59" value="B" style="rounded=1;whiteSpace=wrap;html=1;fillColor=#ffff88;strokeColor=#36393d;fontStyle=1" vertex="1" parent="1">
          <mxGeometry x="-810" y="50" width="20" height="20" as="geometry" />
        </mxCell>
        <mxCell id="FlXLi9PUTKlSXyYW-GBi-60" value="C" style="rounded=1;whiteSpace=wrap;html=1;fillColor=#ffff88;strokeColor=#36393d;fontStyle=1" vertex="1" parent="1">
          <mxGeometry x="-810" y="218.32999999999998" width="20" height="20" as="geometry" />
        </mxCell>
        <mxCell id="FlXLi9PUTKlSXyYW-GBi-63" value="F" style="rounded=1;whiteSpace=wrap;html=1;fillColor=#ffff88;strokeColor=#36393d;fontStyle=1" vertex="1" parent="1">
          <mxGeometry x="-700" y="610" width="20" height="20" as="geometry" />
        </mxCell>
      </root>
    </mxGraphModel>
  </diagram>
</mxfile>
